<svg width="296" height="58" viewBox="0 0 296 58" fill="none" xmlns="http://www.w3.org/2000/svg">
    <g clip-path="url('#clip0_1080_7736')">
        <path d="M87.2684 24.328H85.5346V10.9958L74.1685 24.328H73.7832V7.00586H75.517V20.4354L86.8831 7.00586H87.2684V24.328Z" fill="#6f73a1"></path>
        <path d="M91.4102 7.00586H93.144V14.3045H101.813V7.00586H103.547V24.328H101.813V15.9589H93.144V24.328H91.4102V7.00586Z" fill="#6f73a1"></path>
        <path d="M107.689 26.8582H105.955V22.6736H107.304L114.046 7.00586H114.624L121.752 22.6736H123.101V26.8582H121.367V24.328H107.593V26.8582H107.689ZM109.23 22.6736H119.633L114.239 10.5092L109.23 22.6736Z" fill="#6f73a1"></path>
        <path d="M124.16 7.00586H126.087L131.288 18.781L136.008 7.00586H137.934L131.384 22.5763C130.806 24.0361 129.747 24.7173 128.206 24.7173C127.628 24.7173 126.954 24.62 126.472 24.328C125.894 24.0361 125.22 23.4522 124.353 22.479L125.605 21.4085C126.472 22.2844 127.05 22.771 127.339 22.8683C127.628 22.9656 127.917 23.0629 128.206 23.0629C128.687 23.0629 129.073 22.9656 129.362 22.6736C129.651 22.479 130.036 21.7978 130.421 20.8247L124.16 7.00586Z" fill="#6f73a1"></path>
        <path d="M156.814 10.2175L155.465 11.288C154.694 10.3148 153.828 9.53631 152.768 9.04973C151.708 8.56316 150.553 8.27121 149.3 8.27121C147.952 8.27121 146.7 8.56316 145.544 9.24436C144.388 9.92557 143.521 10.8014 142.847 11.8719C142.172 12.9424 141.883 14.2075 141.883 15.6672C141.883 17.8081 142.558 19.5598 144.003 20.9222C145.447 22.2846 147.278 23.0632 149.397 23.0632C151.805 23.0632 153.828 22.09 155.369 20.241L156.717 21.3115C155.85 22.3819 154.791 23.2578 153.539 23.8417C152.286 24.4256 150.842 24.7175 149.3 24.7175C146.314 24.7175 143.906 23.7444 142.172 21.7007C140.728 20.0464 139.957 17.9054 139.957 15.5699C139.957 13.0397 140.824 10.8987 142.558 9.14705C144.292 7.39537 146.507 6.51953 149.204 6.51953C150.842 6.51953 152.286 6.81148 153.539 7.49269C154.791 8.17389 156.043 9.04973 156.814 10.2175Z" fill="#6f73a1"></path>
        <path d="M158.547 8.66022V7.00586H167.89V8.66022H164.037V24.2307H162.303V8.66022H158.547Z" fill="#6f73a1"></path>
        <path d="M170.395 7.00586H173.766C175.692 7.00586 177.041 7.10317 177.715 7.29781C178.678 7.49244 179.449 8.07633 180.123 8.75754C180.797 9.43875 181.086 10.5092 181.086 11.5797C181.086 12.7475 180.797 13.7206 180.219 14.4018C179.642 15.1804 178.775 15.6669 177.715 15.9589C176.944 16.1535 175.5 16.2508 173.381 16.2508H172.128V24.328H170.395V7.00586ZM172.128 8.66022V14.4991H175.018C176.174 14.4991 177.041 14.4018 177.619 14.2072C178.197 14.0126 178.582 13.6233 178.871 13.1367C179.16 12.6502 179.353 12.1636 179.353 11.4824C179.353 10.8985 179.16 10.4119 178.871 9.92532C178.582 9.43875 178.197 9.1468 177.619 8.85485C177.041 8.56291 176.27 8.56291 175.114 8.56291H172.128V8.66022Z" fill="#6f73a1"></path>
        <path d="M198.04 24.3277H196.306V10.9955L184.94 24.3277H184.555V7.00552H186.288V20.435L197.655 6.9082H198.04V24.3277Z" fill="#6f73a1"></path>
        <path d="M209.117 7.00586L217.111 24.328H215.281L212.584 18.6837H205.167L202.47 24.328H200.544L208.635 7.00586H209.117ZM208.924 10.7038L206.034 16.932H211.91L208.924 10.7038Z" fill="#6f73a1"></path>
        <path d="M233.679 24.328H231.849L226.166 10.9958L220.387 24.328H218.557L225.974 7.00586H226.359L233.679 24.328Z" fill="#6f73a1"></path>
        <path d="M236.473 7.00586H238.206V14.4018H239.459C241.674 14.4018 243.312 14.4991 244.275 14.6938C245.238 14.8884 246.009 15.375 246.683 16.2508C247.261 17.0294 247.55 18.0998 247.55 19.2676C247.55 20.5327 247.261 21.5059 246.683 22.2844C246.105 23.0629 245.334 23.6468 244.467 23.8414C243.601 24.1334 242.059 24.2307 239.94 24.2307H236.569V7.00586H236.473ZM238.206 22.5763H240.037C241.963 22.5763 243.215 22.479 243.793 22.2844C244.371 22.0898 244.853 21.7978 245.142 21.2139C245.431 20.63 245.623 20.0461 245.623 19.2676C245.623 18.3918 245.431 17.7106 244.949 17.1267C244.467 16.5428 243.986 16.2508 243.312 16.1535C242.637 16.0562 241.385 15.9589 239.555 15.9589H238.11V22.5763H238.206Z" fill="#6f73a1"></path>
        <path d="M250.921 7.00586H252.655V14.3045H261.324V7.00586H263.058V24.328H261.324V15.9589H252.655V24.328H250.921V7.00586Z" fill="#6f73a1"></path>
        <path d="M267.199 7.00586H268.933V14.4018H270.185C272.401 14.4018 274.038 14.4991 275.001 14.6938C275.965 14.8884 276.735 15.375 277.313 16.2508C277.891 17.0294 278.18 18.0998 278.18 19.2676C278.18 20.5327 277.891 21.5059 277.313 22.2844C276.735 23.0629 275.965 23.6468 275.098 23.8414C274.231 24.1334 272.69 24.2307 270.571 24.2307H267.199V7.00586ZM268.933 22.5763H270.763C272.69 22.5763 273.942 22.479 274.52 22.2844C275.098 22.0898 275.579 21.7978 275.868 21.2139C276.254 20.7273 276.35 20.0461 276.35 19.2676C276.35 18.3918 276.157 17.7106 275.676 17.1267C275.194 16.5428 274.712 16.2508 274.038 16.1535C273.364 16.0562 272.112 15.9589 270.282 15.9589H268.837V22.5763H268.933ZM280.299 7.00586H282.033V24.328H280.299V7.00586Z" fill="#6f73a1"></path>
        <path d="M286.175 7.00586H296V8.66022H287.909V14.1099H295.903V15.7642H287.909V22.5763H295.903V24.328H286.175V7.00586Z" fill="#6f73a1"></path>
        <path d="M73.7832 35.9082H77.1545C79.081 35.9082 80.4295 36.0055 81.1037 36.2001C82.067 36.3948 82.8375 36.9787 83.5118 37.6599C84.1861 38.3411 84.475 39.4116 84.475 40.482C84.475 41.6498 84.1861 42.623 83.6081 43.3042C83.0302 44.0827 82.1633 44.5693 81.1037 44.8612C80.3332 45.0559 78.8883 45.1532 76.7692 45.1532H75.517V53.2304H73.7832V35.9082ZM75.517 37.5626V43.4015H78.4067C79.5626 43.4015 80.4295 43.3042 81.0074 43.1095C81.5854 42.9149 81.9706 42.5257 82.2596 42.0391C82.5486 41.5525 82.7412 41.0659 82.7412 40.3847C82.7412 39.8008 82.5486 39.3142 82.2596 38.8277C81.9706 38.3411 81.5854 38.0491 81.0074 37.7572C80.5258 37.5626 79.6589 37.4652 78.503 37.4652H75.517V37.5626Z" fill="#6f73a1"></path>
        <path d="M87.9424 35.9082H97.7673V37.5626H89.5799V43.0122H97.5747V44.6666H89.5799V51.4787H97.5747V53.133H87.9424V35.9082Z" fill="#6f73a1"></path>
        <path d="M102.391 51.576H109.712V35.9082H111.445V51.576H118.862V35.9082H120.596V53.2304H100.657V35.9082H102.391V51.576Z" fill="#6f73a1"></path>
        <path d="M124.642 35.9082H134.467V37.5626H126.375V43.0122H134.37V44.6666H126.375V51.4787H134.37V53.133H124.642V35.9082Z" fill="#6f73a1"></path>
        <path d="M137.452 35.9082H139.186V43.2069H147.855V35.9082H149.589V53.2304H147.855V44.8612H139.186V53.2304H137.452V35.9082Z" fill="#6f73a1"></path>
        <path d="M167.217 53.133H165.483V39.8981L154.117 53.133H153.731V35.9082H155.465V49.435L166.831 35.9082H167.217V53.133Z" fill="#6f73a1"></path>
        <path d="M181.087 53.1343H179.353V45.0571H178.39L172.226 53.1343H170.106L176.271 45.0571C174.826 45.0571 173.67 44.8625 172.9 44.4732C172.129 44.084 171.455 43.5974 170.973 42.8189C170.492 42.1377 170.299 41.2618 170.299 40.2887C170.299 39.1209 170.588 38.245 171.262 37.4665C171.937 36.688 172.707 36.2014 173.767 35.9095C174.441 35.7148 175.693 35.7148 177.62 35.7148H180.991V53.1343H181.087ZM176.367 37.5638C175.212 37.5638 174.345 37.6612 173.863 37.8558C173.381 38.0504 172.996 38.4397 172.611 38.8289C172.322 39.3155 172.129 39.8021 172.129 40.386C172.129 40.9699 172.322 41.5538 172.611 42.0403C172.9 42.5269 173.381 42.9162 173.863 43.1108C174.441 43.3054 175.212 43.4028 176.367 43.4028H179.353V37.5638H176.367Z" fill="#6f73a1"></path>
        <path d="M0 29C0 45.057 12.8109 58 28.7042 58C40.2629 58 50.1842 51.1879 54.7114 41.2617C49.4136 51.2852 38.1438 56.2483 28.0299 52.5503C16.6638 48.4631 11.0771 35.2282 15.4116 23.0638C19.7462 10.8993 32.3645 4.37919 43.6342 8.46644C48.643 10.3154 52.4959 13.9161 54.904 18.3926C54.2297 16.9329 53.4592 15.5705 52.4959 14.2081C50.8584 11.9698 48.8357 10.0235 46.4276 8.56376C45.2717 7.88255 44.0195 7.29866 42.671 6.81208C41.9967 6.61745 41.3225 6.3255 40.6482 6.22819L38.6254 5.83893C35.8321 5.44966 33.0387 5.6443 30.2454 6.3255C24.755 7.78523 19.9388 11.094 16.4712 15.6678C14.8337 17.906 13.4852 20.4362 12.522 23.1611C11.5587 25.8859 10.9808 28.7081 10.8845 31.5302C10.5955 37.2718 12.1367 43.2081 15.6043 48.0738C16.2786 49.047 17.1455 50.0201 18.0124 50.896C16.9528 50.2148 15.9896 49.4362 15.1227 48.6577C11.0771 45.057 8.38008 40.094 7.41686 34.6443C6.26098 29.1946 7.03156 23.5503 9.34331 18.4899C11.6551 13.5268 15.6043 9.24497 20.5168 6.71477C25.3329 4.08725 31.1123 3.11409 36.6027 3.89262C42.0931 4.47651 47.3908 7.20134 51.3401 11.1913C49.4136 9.14765 47.1982 7.39597 44.7901 5.93624C43.5379 5.25503 42.2857 4.57383 40.9372 4.18456C39.5887 3.7953 38.1438 3.40604 36.7953 3.21141C31.1123 2.23826 25.1403 3.11409 20.0351 5.6443C14.8337 8.1745 10.4992 12.5537 7.89847 17.8087C5.20143 23.0638 4.2382 29.0973 5.20143 35.0336C6.06834 40.8725 8.95802 46.5168 13.1962 50.604C14.1595 51.4799 15.219 52.3557 16.2786 53.1342C15.1227 52.5503 13.9668 51.8691 13.0036 51.0906C10.6918 49.4362 8.66905 47.4899 6.93524 45.1544C5.29775 42.8188 3.94924 40.2886 2.98601 37.6611L2.31175 35.6174L1.92646 33.4765L1.83013 32.9899L1.73381 32.5034L1.63749 31.4329L1.54116 30.3624V29.2919V28.2215C1.54116 27.8322 1.54116 27.5403 1.54116 27.151L1.73381 25.0101C2.02278 23.6477 2.21542 22.1879 2.60072 20.8255C2.98601 19.4631 3.56394 18.1007 4.04556 16.7383C4.71982 15.4732 5.29775 14.2081 6.16466 13.0403C7.70582 10.7047 9.63228 8.46644 11.944 6.71477C14.1595 4.96309 16.6638 3.50336 19.3609 2.43289C22.0579 1.45973 24.8513 0.778524 27.741 0.681208C33.5203 0.291946 39.4924 1.55705 44.3085 4.67114C43.7306 4.28188 43.1526 3.98993 42.5747 3.60067C42.4784 3.60067 42.4784 3.50336 42.4784 3.50336C41.9004 3.21141 41.3225 2.91946 40.7445 2.62752C40.6482 2.5302 40.4556 2.5302 40.3593 2.43289C39.1071 1.84899 37.8549 1.45973 36.5063 1.07047C36.41 1.07047 36.41 1.07047 36.3137 0.973154C35.6394 0.778524 34.9652 0.583893 34.2909 0.486577C34.1946 0.486577 34.0983 0.486577 34.002 0.486577C33.5203 0.389262 32.9424 0.291946 32.4608 0.194631C32.1718 0.194631 31.8828 0.0973154 31.5939 0.0973154C31.4012 0.0973154 31.2086 0.0973154 31.0159 0.0973154C30.3417 0 29.5711 0 28.7042 0C27.3557 0 25.9108 0.0973154 24.6586 0.291946C24.466 0.291946 24.2733 0.389262 24.0807 0.389262C23.6954 0.486577 23.4064 0.486577 23.0212 0.583893C22.6359 0.681208 22.2506 0.778523 21.8653 0.875839C21.3837 0.973154 20.9021 1.16779 20.4204 1.2651C20.3241 1.2651 20.2278 1.36242 20.1315 1.36242C8.47641 5.0604 0 16.057 0 29Z" fill="#394685"></path>
        <path d="M44.694 12.0678C41.5154 10.9 38.1441 10.8027 34.9654 11.5812C36.8919 11.3866 38.8183 11.4839 40.6485 12.1651C48.258 14.8899 51.7256 24.8161 48.4506 34.2557C45.0793 43.6953 36.2176 49.145 28.5118 46.3228C20.9986 43.598 17.531 33.8664 20.6133 24.6215C20.517 24.8161 20.4207 25.0107 20.3244 25.3027C16.4714 36.1047 21.1913 47.6852 30.7272 51.0913C40.3595 54.5946 51.244 48.6584 55.0006 37.8564C59.0461 27.0544 54.3263 15.4738 44.694 12.0678Z" fill="#c2deec"></path>
        <path d="M37.6623 23.1617L26.1035 16.3496V29.8765L37.6623 23.1617Z" fill="#6dbedf"></path>
        <path d="M37.6623 36.689L26.1035 29.877V43.4038L37.6623 36.689Z" fill="#9acce2"></path>
        <path d="M49.3172 29.8769L37.6621 23.1621V36.689L49.3172 29.8769Z" fill="#47679e"></path>
    </g>
    <defs>
        <clipPath id="clip0_1080_7736">
            <rect width="296" height="58" fill="white"></rect>
        </clipPath>
    </defs>
</svg>
