<?xml version="1.0" encoding="UTF-8"?>
<svg xmlns="http://www.w3.org/2000/svg" xmlns:xlink="http://www.w3.org/1999/xlink" width="32px" height="33px" viewBox="0 0 32 33" version="1.1">
    <g id="surface1">
        <path style=" stroke:none;fill-rule:nonzero;fill:rgb(100%,100%,100%);fill-opacity:1;" d="M 0 16.5 C 0 25.636719 7.320312 33 16.402344 33 C 23.007812 33 28.675781 29.125 31.261719 23.476562 C 28.238281 29.179688 21.796875 32.003906 16.015625 29.898438 C 9.523438 27.574219 6.328125 20.042969 8.804688 13.121094 C 11.285156 6.203125 18.492188 2.492188 24.933594 4.816406 C 27.796875 5.867188 29.996094 7.917969 31.375 10.464844 C 30.988281 9.632812 30.546875 8.859375 29.996094 8.082031 C 29.0625 6.808594 27.90625 5.703125 26.53125 4.871094 C 25.871094 4.484375 25.152344 4.152344 24.382812 3.875 C 24 3.765625 23.613281 3.597656 23.226562 3.542969 L 22.070312 3.320312 C 20.476562 3.101562 18.878906 3.210938 17.28125 3.597656 C 14.144531 4.429688 11.394531 6.3125 9.414062 8.914062 C 8.476562 10.1875 7.707031 11.628906 7.15625 13.179688 C 6.605469 14.726562 6.273438 16.332031 6.21875 17.941406 C 6.054688 21.207031 6.933594 24.582031 8.917969 27.351562 C 9.300781 27.90625 9.796875 28.460938 10.292969 28.957031 C 9.6875 28.570312 9.136719 28.128906 8.640625 27.683594 C 6.328125 25.636719 4.789062 22.8125 4.238281 19.710938 C 3.578125 16.609375 4.019531 13.398438 5.339844 10.519531 C 6.660156 7.695312 8.917969 5.261719 11.722656 3.820312 C 14.476562 2.324219 17.777344 1.773438 20.914062 2.214844 C 24.054688 2.546875 27.082031 4.097656 29.335938 6.367188 C 28.238281 5.203125 26.96875 4.207031 25.59375 3.378906 C 24.878906 2.988281 24.164062 2.601562 23.394531 2.382812 C 22.621094 2.160156 21.796875 1.9375 21.027344 1.828125 C 17.777344 1.273438 14.367188 1.773438 11.449219 3.210938 C 8.476562 4.652344 6 7.144531 4.511719 10.132812 C 2.972656 13.121094 2.421875 16.554688 2.972656 19.933594 C 3.46875 23.253906 5.117188 26.464844 7.539062 28.792969 C 8.089844 29.289062 8.695312 29.789062 9.300781 30.230469 C 8.640625 29.898438 7.980469 29.511719 7.429688 29.070312 C 6.109375 28.128906 4.953125 27.019531 3.964844 25.691406 C 3.027344 24.363281 2.257812 22.921875 1.707031 21.429688 L 1.320312 20.265625 L 1.101562 19.046875 L 0.992188 18.492188 L 0.9375 17.882812 L 0.878906 17.273438 L 0.878906 16.058594 C 0.878906 15.835938 0.878906 15.667969 0.878906 15.449219 L 0.992188 14.230469 C 1.15625 13.453125 1.265625 12.625 1.484375 11.847656 C 1.707031 11.074219 2.035156 10.296875 2.3125 9.523438 C 2.695312 8.804688 3.027344 8.082031 3.523438 7.417969 C 4.402344 6.089844 5.503906 4.816406 6.824219 3.820312 C 8.089844 2.824219 9.523438 1.992188 11.0625 1.382812 C 12.605469 0.832031 14.199219 0.441406 15.851562 0.386719 C 19.15625 0.167969 22.566406 0.886719 25.320312 2.65625 C 24.988281 2.4375 24.660156 2.269531 24.328125 2.046875 C 24.273438 2.046875 24.273438 1.992188 24.273438 1.992188 C 23.941406 1.828125 23.613281 1.660156 23.28125 1.496094 C 23.226562 1.441406 23.117188 1.441406 23.0625 1.382812 C 22.347656 1.050781 21.632812 0.832031 20.859375 0.609375 C 20.804688 0.609375 20.804688 0.609375 20.75 0.554688 C 20.367188 0.441406 19.980469 0.332031 19.59375 0.277344 C 19.539062 0.277344 19.484375 0.277344 19.429688 0.277344 C 19.15625 0.222656 18.824219 0.167969 18.550781 0.109375 C 18.382812 0.109375 18.21875 0.0546875 18.054688 0.0546875 C 17.945312 0.0546875 17.832031 0.0546875 17.722656 0.0546875 C 17.339844 0 16.898438 0 16.402344 0 C 15.632812 0 14.804688 0.0546875 14.089844 0.167969 C 13.980469 0.167969 13.871094 0.222656 13.761719 0.222656 C 13.539062 0.277344 13.375 0.277344 13.15625 0.332031 C 12.933594 0.386719 12.714844 0.441406 12.496094 0.5 C 12.21875 0.554688 11.945312 0.664062 11.667969 0.71875 C 11.613281 0.71875 11.558594 0.773438 11.503906 0.773438 C 4.84375 2.878906 0 9.136719 0 16.5 Z M 0 16.5 "/>
        <path style=" stroke:none;fill-rule:nonzero;fill:rgb(100%,100%,100%);fill-opacity:1;" d="M 25.539062 6.867188 C 23.722656 6.203125 21.796875 6.144531 19.980469 6.589844 C 21.082031 6.480469 22.183594 6.535156 23.226562 6.921875 C 27.574219 8.472656 29.558594 14.121094 27.6875 19.492188 C 25.757812 24.859375 20.695312 27.960938 16.292969 26.355469 C 12 24.804688 10.019531 19.269531 11.777344 14.007812 C 11.722656 14.121094 11.667969 14.230469 11.613281 14.394531 C 9.414062 20.542969 12.109375 27.132812 17.558594 29.070312 C 23.0625 31.0625 29.28125 27.683594 31.429688 21.539062 C 33.742188 15.394531 31.042969 8.804688 25.539062 6.867188 Z M 25.539062 6.867188 "/>
        <path style=" stroke:none;fill-rule:nonzero;fill:rgb(100%,100%,100%);fill-opacity:1;" d="M 21.519531 13.179688 L 14.917969 9.300781 L 14.917969 17 Z M 21.519531 13.179688 "/>
        <path style=" stroke:none;fill-rule:nonzero;fill:rgb(100%,100%,100%);fill-opacity:1;" d="M 21.519531 20.875 L 14.917969 17 L 14.917969 24.695312 Z M 21.519531 20.875 "/>
        <path style=" stroke:none;fill-rule:nonzero;fill:rgb(100%,100%,100%);fill-opacity:1;" d="M 28.179688 17 L 21.519531 13.179688 L 21.519531 20.875 Z M 28.179688 17 "/>
    </g>
</svg>
